<svg width="208" height="113" viewBox="0 0 208 113" fill="none" xmlns="http://www.w3.org/2000/svg">
<path d="M6.56973 36C6.40306 36 6.25306 35.95 6.11973 35.85C6.01973 35.7167 5.96973 35.5667 5.96973 35.4V1.6C5.96973 1.43333 6.01973 1.3 6.11973 1.2C6.25306 1.06666 6.40306 0.999998 6.56973 0.999998H13.6697C13.8364 0.999998 13.9697 1.06666 14.0697 1.2C14.2031 1.3 14.2697 1.43333 14.2697 1.6V12.9C14.2697 13.0333 14.3031 13.1 14.3697 13.1C14.4364 13.1 14.5031 13.05 14.5697 12.95L19.8197 1.45C19.9531 1.15 20.1864 0.999998 20.5197 0.999998H28.0197C28.2531 0.999998 28.4031 1.06666 28.4697 1.2C28.5697 1.3 28.5697 1.46667 28.4697 1.7L21.2197 16.4C21.1864 16.5333 21.1697 16.6333 21.1697 16.7L28.7697 35.3C28.8031 35.3667 28.8197 35.4667 28.8197 35.6C28.8197 35.8667 28.6531 36 28.3197 36H20.7697C20.4031 36 20.1697 35.85 20.0697 35.55L15.5697 23.85C15.5364 23.75 15.4864 23.7 15.4197 23.7C15.3531 23.7 15.2864 23.75 15.2197 23.85L14.3197 25.65C14.2864 25.7167 14.2697 25.8167 14.2697 25.95V35.4C14.2697 35.5667 14.2031 35.7167 14.0697 35.85C13.9697 35.95 13.8364 36 13.6697 36H6.56973ZM40.1443 36.4C36.911 36.4 34.3277 35.4667 32.3943 33.6C30.4943 31.7333 29.5443 29.2167 29.5443 26.05V10.95C29.5443 7.81666 30.4943 5.31667 32.3943 3.45C34.3277 1.55 36.911 0.6 40.1443 0.6C43.3443 0.6 45.911 1.55 47.8443 3.45C49.811 5.31667 50.7943 7.81666 50.7943 10.95V26.05C50.7943 29.2167 49.811 31.7333 47.8443 33.6C45.911 35.4667 43.3443 36.4 40.1443 36.4ZM40.1443 29.3C40.8777 29.3 41.4443 29.05 41.8443 28.55C42.2777 28.0167 42.4943 27.3 42.4943 26.4V10.6C42.4943 9.7 42.2777 9 41.8443 8.5C41.4443 7.96666 40.8777 7.7 40.1443 7.7C39.411 7.7 38.8443 7.96666 38.4443 8.5C38.0443 9 37.8443 9.7 37.8443 10.6V26.4C37.8443 27.3 38.0443 28.0167 38.4443 28.55C38.8443 29.05 39.411 29.3 40.1443 29.3ZM54.4701 36C54.3035 36 54.1535 35.95 54.0201 35.85C53.9201 35.7167 53.8701 35.5667 53.8701 35.4V1.6C53.8701 1.43333 53.9201 1.3 54.0201 1.2C54.1535 1.06666 54.3035 0.999998 54.4701 0.999998H61.5701C61.7368 0.999998 61.8701 1.06666 61.9701 1.2C62.1035 1.3 62.1701 1.43333 62.1701 1.6V12.9C62.1701 13.0333 62.2035 13.1 62.2701 13.1C62.3368 13.1 62.4035 13.05 62.4701 12.95L67.7201 1.45C67.8535 1.15 68.0868 0.999998 68.4201 0.999998H75.9201C76.1535 0.999998 76.3035 1.06666 76.3701 1.2C76.4701 1.3 76.4701 1.46667 76.3701 1.7L69.1201 16.4C69.0868 16.5333 69.0701 16.6333 69.0701 16.7L76.6701 35.3C76.7035 35.3667 76.7201 35.4667 76.7201 35.6C76.7201 35.8667 76.5535 36 76.2201 36H68.6701C68.3035 36 68.0701 35.85 67.9701 35.55L63.4701 23.85C63.4368 23.75 63.3868 23.7 63.3201 23.7C63.2535 23.7 63.1868 23.75 63.1201 23.85L62.2201 25.65C62.1868 25.7167 62.1701 25.8167 62.1701 25.95V35.4C62.1701 35.5667 62.1035 35.7167 61.9701 35.85C61.8701 35.95 61.7368 36 61.5701 36H54.4701ZM88.0447 36.4C84.8114 36.4 82.2281 35.4667 80.2947 33.6C78.3947 31.7333 77.4447 29.2167 77.4447 26.05V10.95C77.4447 7.81666 78.3947 5.31667 80.2947 3.45C82.2281 1.55 84.8114 0.6 88.0447 0.6C91.2447 0.6 93.8114 1.55 95.7447 3.45C97.7114 5.31667 98.6947 7.81666 98.6947 10.95V26.05C98.6947 29.2167 97.7114 31.7333 95.7447 33.6C93.8114 35.4667 91.2447 36.4 88.0447 36.4ZM88.0447 29.3C88.7781 29.3 89.3447 29.05 89.7447 28.55C90.1781 28.0167 90.3947 27.3 90.3947 26.4V10.6C90.3947 9.7 90.1781 9 89.7447 8.5C89.3447 7.96666 88.7781 7.7 88.0447 7.7C87.3114 7.7 86.7447 7.96666 86.3447 8.5C85.9447 9 85.7447 9.7 85.7447 10.6V26.4C85.7447 27.3 85.9447 28.0167 86.3447 28.55C86.7447 29.05 87.3114 29.3 88.0447 29.3ZM102.371 36C102.204 36 102.054 35.95 101.921 35.85C101.821 35.7167 101.771 35.5667 101.771 35.4V1.6C101.771 1.43333 101.821 1.3 101.921 1.2C102.054 1.06666 102.204 0.999998 102.371 0.999998H111.921C115.121 0.999998 117.687 1.9 119.621 3.7C121.554 5.5 122.521 7.88333 122.521 10.85V26.15C122.521 29.1167 121.554 31.5 119.621 33.3C117.687 35.1 115.121 36 111.921 36H102.371ZM110.071 28.65C110.071 28.8167 110.154 28.9 110.321 28.9L111.721 28.85C112.421 28.8167 113.004 28.5167 113.471 27.95C113.937 27.35 114.187 26.5667 114.221 25.6V11.4C114.221 10.4 113.987 9.6 113.521 9C113.054 8.4 112.437 8.1 111.671 8.1H110.321C110.154 8.1 110.071 8.18333 110.071 8.35V28.65ZM139.444 36C139.077 36 138.844 35.8333 138.744 35.5L135.344 22.25C135.311 22.1167 135.227 22.05 135.094 22.05H134.344C134.177 22.05 134.094 22.1333 134.094 22.3V35.4C134.094 35.5667 134.027 35.7167 133.894 35.85C133.794 35.95 133.661 36 133.494 36H126.394C126.227 36 126.077 35.95 125.944 35.85C125.844 35.7167 125.794 35.5667 125.794 35.4V1.6C125.794 1.43333 125.844 1.3 125.944 1.2C126.077 1.06666 126.227 0.999998 126.394 0.999998H137.144C139.077 0.999998 140.794 1.46666 142.294 2.4C143.794 3.3 144.944 4.58333 145.744 6.25C146.577 7.88333 146.994 9.75 146.994 11.85C146.994 13.7167 146.644 15.4 145.944 16.9C145.277 18.3667 144.327 19.55 143.094 20.45C143.027 20.4833 142.977 20.5333 142.944 20.6C142.911 20.6333 142.911 20.6833 142.944 20.75L147.244 35.3L147.294 35.5C147.294 35.8333 147.111 36 146.744 36H139.444ZM134.344 8.1C134.177 8.1 134.094 8.18333 134.094 8.35V15.45C134.094 15.6167 134.177 15.7 134.344 15.7H135.744C136.644 15.7 137.361 15.3667 137.894 14.7C138.427 14.0333 138.694 13.1167 138.694 11.95C138.694 10.7167 138.427 9.76667 137.894 9.1C137.361 8.43333 136.644 8.1 135.744 8.1H134.344ZM150.466 36C150.3 36 150.15 35.95 150.016 35.85C149.916 35.7167 149.866 35.5667 149.866 35.4V1.6C149.866 1.43333 149.916 1.3 150.016 1.2C150.15 1.06666 150.3 0.999998 150.466 0.999998H157.566C157.733 0.999998 157.866 1.06666 157.966 1.2C158.1 1.3 158.166 1.43333 158.166 1.6V35.4C158.166 35.5667 158.1 35.7167 157.966 35.85C157.866 35.95 157.733 36 157.566 36H150.466ZM162.234 36C162.067 36 161.917 35.95 161.784 35.85C161.684 35.7167 161.634 35.5667 161.634 35.4V1.6C161.634 1.43333 161.684 1.3 161.784 1.2C161.917 1.06666 162.067 0.999998 162.234 0.999998H169.334C169.5 0.999998 169.634 1.06666 169.734 1.2C169.867 1.3 169.934 1.43333 169.934 1.6V28.65C169.934 28.8167 170.017 28.9 170.184 28.9H180.384C180.55 28.9 180.684 28.9667 180.784 29.1C180.917 29.2 180.984 29.3333 180.984 29.5V35.4C180.984 35.5667 180.917 35.7167 180.784 35.85C180.684 35.95 180.55 36 180.384 36H162.234ZM202.66 7.5C202.66 7.66667 202.593 7.81667 202.46 7.95C202.36 8.05 202.227 8.1 202.06 8.1H192.01C191.843 8.1 191.76 8.18333 191.76 8.35V14.65C191.76 14.8167 191.843 14.9 192.01 14.9H197.51C197.677 14.9 197.81 14.9667 197.91 15.1C198.043 15.2 198.11 15.3333 198.11 15.5V21.45C198.11 21.6167 198.043 21.7667 197.91 21.9C197.81 22 197.677 22.05 197.51 22.05H192.01C191.843 22.05 191.76 22.1333 191.76 22.3V28.65C191.76 28.8167 191.843 28.9 192.01 28.9H202.06C202.227 28.9 202.36 28.9667 202.46 29.1C202.593 29.2 202.66 29.3333 202.66 29.5V35.4C202.66 35.5667 202.593 35.7167 202.46 35.85C202.36 35.95 202.227 36 202.06 36H184.06C183.893 36 183.743 35.95 183.61 35.85C183.51 35.7167 183.46 35.5667 183.46 35.4V1.6C183.46 1.43333 183.51 1.3 183.61 1.2C183.743 1.06666 183.893 0.999998 184.06 0.999998H202.06C202.227 0.999998 202.36 1.06666 202.46 1.2C202.593 1.3 202.66 1.43333 202.66 1.6V7.5ZM16.8254 39.4C16.9587 39.1333 17.2087 39 17.5754 39H24.5254C24.6921 39 24.8254 39.0667 24.9254 39.2C25.0587 39.3 25.1254 39.4333 25.1254 39.6V73.4C25.1254 73.5667 25.0587 73.7167 24.9254 73.85C24.8254 73.95 24.6921 74 24.5254 74H17.4254C17.2587 74 17.1087 73.95 16.9754 73.85C16.8754 73.7167 16.8254 73.5667 16.8254 73.4V51.95C16.8254 51.8167 16.7921 51.75 16.7254 51.75C16.6587 51.7167 16.5921 51.75 16.5254 51.85L13.0254 57.95C12.8921 58.2167 12.7921 58.35 12.7254 58.35C12.6587 58.35 12.5421 58.2167 12.3754 57.95L8.87539 51.85C8.80872 51.75 8.74206 51.7 8.67539 51.7C8.60872 51.7 8.57539 51.7667 8.57539 51.9V73.4C8.57539 73.5667 8.50872 73.7167 8.37539 73.85C8.27539 73.95 8.14206 74 7.97539 74H0.875391C0.708724 74 0.558724 73.95 0.425391 73.85C0.325391 73.7167 0.275391 73.5667 0.275391 73.4V39.6C0.275391 39.4333 0.325391 39.3 0.425391 39.2C0.558724 39.0667 0.708724 39 0.875391 39H7.87539C8.20872 39 8.45872 39.1333 8.62539 39.4L12.6254 46.65C12.7254 46.7833 12.8254 46.7833 12.9254 46.65L16.8254 39.4ZM43.5563 74C43.1563 74 42.9396 73.8167 42.9063 73.45L42.2563 69.1C42.2563 68.9333 42.1563 68.85 41.9563 68.85H36.5563C36.3563 68.85 36.2563 68.9333 36.2563 69.1L35.6563 73.45C35.6229 73.8167 35.4063 74 35.0063 74H27.9063C27.4729 74 27.3063 73.7833 27.4063 73.35L34.6563 39.55C34.7229 39.1833 34.9396 39 35.3063 39H43.4563C43.8229 39 44.0396 39.1833 44.1063 39.55L51.3063 73.35L51.3563 73.55C51.3563 73.85 51.1729 74 50.8063 74H43.5563ZM37.3563 62.2C37.3563 62.3667 37.4229 62.45 37.5563 62.45H40.9063C41.0396 62.45 41.1063 62.3667 41.1063 62.2L39.3063 50.8C39.2729 50.6667 39.2229 50.6 39.1562 50.6C39.0896 50.6 39.0396 50.6667 39.0063 50.8L37.3563 62.2ZM67.4469 74C67.0802 74 66.8469 73.8333 66.7469 73.5L63.3469 60.25C63.3135 60.1167 63.2302 60.05 63.0969 60.05H62.3469C62.1802 60.05 62.0969 60.1333 62.0969 60.3V73.4C62.0969 73.5667 62.0302 73.7167 61.8969 73.85C61.7969 73.95 61.6635 74 61.4969 74H54.3969C54.2302 74 54.0802 73.95 53.9469 73.85C53.8469 73.7167 53.7969 73.5667 53.7969 73.4V39.6C53.7969 39.4333 53.8469 39.3 53.9469 39.2C54.0802 39.0667 54.2302 39 54.3969 39H65.1469C67.0802 39 68.7969 39.4667 70.2969 40.4C71.7969 41.3 72.9469 42.5833 73.7469 44.25C74.5802 45.8833 74.9969 47.75 74.9969 49.85C74.9969 51.7167 74.6469 53.4 73.9469 54.9C73.2802 56.3667 72.3302 57.55 71.0969 58.45C71.0302 58.4833 70.9802 58.5333 70.9469 58.6C70.9135 58.6333 70.9135 58.6833 70.9469 58.75L75.2469 73.3L75.2969 73.5C75.2969 73.8333 75.1135 74 74.7469 74H67.4469ZM62.3469 46.1C62.1802 46.1 62.0969 46.1833 62.0969 46.35V53.45C62.0969 53.6167 62.1802 53.7 62.3469 53.7H63.7469C64.6469 53.7 65.3635 53.3667 65.8969 52.7C66.4302 52.0333 66.6969 51.1167 66.6969 49.95C66.6969 48.7167 66.4302 47.7667 65.8969 47.1C65.3635 46.4333 64.6469 46.1 63.7469 46.1H62.3469ZM78.4691 74C78.3025 74 78.1525 73.95 78.0191 73.85C77.9191 73.7167 77.8691 73.5667 77.8691 73.4V39.6C77.8691 39.4333 77.9191 39.3 78.0191 39.2C78.1525 39.0667 78.3025 39 78.4691 39H85.5691C85.7358 39 85.8691 39.0667 85.9691 39.2C86.1025 39.3 86.1691 39.4333 86.1691 39.6V50.9C86.1691 51.0333 86.2025 51.1 86.2691 51.1C86.3358 51.1 86.4025 51.05 86.4691 50.95L91.7191 39.45C91.8525 39.15 92.0858 39 92.4191 39H99.9191C100.152 39 100.302 39.0667 100.369 39.2C100.469 39.3 100.469 39.4667 100.369 39.7L93.1191 54.4C93.0858 54.5333 93.0691 54.6333 93.0691 54.7L100.669 73.3C100.702 73.3667 100.719 73.4667 100.719 73.6C100.719 73.8667 100.552 74 100.219 74H92.6691C92.3025 74 92.0691 73.85 91.9691 73.55L87.4691 61.85C87.4358 61.75 87.3858 61.7 87.3191 61.7C87.2525 61.7 87.1858 61.75 87.1191 61.85L86.2191 63.65C86.1858 63.7167 86.1691 63.8167 86.1691 63.95V73.4C86.1691 73.5667 86.1025 73.7167 85.9691 73.85C85.8691 73.95 85.7358 74 85.5691 74H78.4691ZM122.313 45.5C122.313 45.6667 122.247 45.8167 122.113 45.95C122.013 46.05 121.88 46.1 121.713 46.1H111.663C111.497 46.1 111.413 46.1833 111.413 46.35V52.65C111.413 52.8167 111.497 52.9 111.663 52.9H117.163C117.33 52.9 117.463 52.9667 117.563 53.1C117.697 53.2 117.763 53.3333 117.763 53.5V59.45C117.763 59.6167 117.697 59.7667 117.563 59.9C117.463 60 117.33 60.05 117.163 60.05H111.663C111.497 60.05 111.413 60.1333 111.413 60.3V66.65C111.413 66.8167 111.497 66.9 111.663 66.9H121.713C121.88 66.9 122.013 66.9667 122.113 67.1C122.247 67.2 122.313 67.3333 122.313 67.5V73.4C122.313 73.5667 122.247 73.7167 122.113 73.85C122.013 73.95 121.88 74 121.713 74H103.713C103.547 74 103.397 73.95 103.263 73.85C103.163 73.7167 103.113 73.5667 103.113 73.4V39.6C103.113 39.4333 103.163 39.3 103.263 39.2C103.397 39.0667 103.547 39 103.713 39H121.713C121.88 39 122.013 39.0667 122.113 39.2C122.247 39.3 122.313 39.4333 122.313 39.6V45.5ZM146.034 39C146.2 39 146.334 39.0667 146.434 39.2C146.567 39.3 146.634 39.4333 146.634 39.6V45.5C146.634 45.6667 146.567 45.8167 146.434 45.95C146.334 46.05 146.2 46.1 146.034 46.1H139.834C139.667 46.1 139.584 46.1833 139.584 46.35V73.4C139.584 73.5667 139.517 73.7167 139.384 73.85C139.284 73.95 139.15 74 138.984 74H131.884C131.717 74 131.567 73.95 131.434 73.85C131.334 73.7167 131.284 73.5667 131.284 73.4V46.35C131.284 46.1833 131.2 46.1 131.034 46.1H125.084C124.917 46.1 124.767 46.05 124.634 45.95C124.534 45.8167 124.484 45.6667 124.484 45.5V39.6C124.484 39.4333 124.534 39.3 124.634 39.2C124.767 39.0667 124.917 39 125.084 39H146.034ZM150.051 74C149.885 74 149.735 73.95 149.601 73.85C149.501 73.7167 149.451 73.5667 149.451 73.4V39.6C149.451 39.4333 149.501 39.3 149.601 39.2C149.735 39.0667 149.885 39 150.051 39H157.151C157.318 39 157.451 39.0667 157.551 39.2C157.685 39.3 157.751 39.4333 157.751 39.6V73.4C157.751 73.5667 157.685 73.7167 157.551 73.85C157.451 73.95 157.318 74 157.151 74H150.051ZM175.619 39.6C175.619 39.4333 175.669 39.3 175.769 39.2C175.902 39.0667 176.052 39 176.219 39H183.219C183.385 39 183.519 39.0667 183.619 39.2C183.752 39.3 183.819 39.4333 183.819 39.6V73.4C183.819 73.5667 183.752 73.7167 183.619 73.85C183.519 73.95 183.385 74 183.219 74H175.269C174.902 74 174.669 73.8333 174.569 73.5L169.619 56.1C169.585 56 169.519 55.95 169.419 55.95C169.352 55.9167 169.319 55.9667 169.319 56.1L169.419 73.4C169.419 73.5667 169.352 73.7167 169.219 73.85C169.119 73.95 168.985 74 168.819 74H161.819C161.652 74 161.502 73.95 161.369 73.85C161.269 73.7167 161.219 73.5667 161.219 73.4V39.6C161.219 39.4333 161.269 39.3 161.369 39.2C161.502 39.0667 161.652 39 161.819 39H169.669C170.035 39 170.269 39.1667 170.369 39.5L175.369 57C175.402 57.1 175.452 57.15 175.519 57.15C175.619 57.15 175.669 57.0833 175.669 56.95L175.619 39.6ZM197.392 74.4C194.225 74.4 191.692 73.5167 189.792 71.75C187.892 69.95 186.942 67.55 186.942 64.55V48.4C186.942 45.4 187.892 43.0167 189.792 41.25C191.692 39.4833 194.225 38.6 197.392 38.6C200.558 38.6 203.092 39.5 204.992 41.3C206.925 43.1 207.892 45.5 207.892 48.5V50.35C207.892 50.5167 207.825 50.6667 207.692 50.8C207.592 50.9 207.458 50.95 207.292 50.95H200.192C200.025 50.95 199.875 50.9 199.742 50.8C199.642 50.6667 199.592 50.5167 199.592 50.35V48.4C199.592 47.6 199.392 46.95 198.992 46.45C198.592 45.95 198.058 45.7 197.392 45.7C196.758 45.7 196.242 45.95 195.842 46.45C195.442 46.95 195.242 47.6 195.242 48.4V64.6C195.242 65.4 195.442 66.05 195.842 66.55C196.242 67.05 196.758 67.3 197.392 67.3C198.058 67.3 198.592 67.05 198.992 66.55C199.392 66.05 199.592 65.4 199.592 64.6V61.4C199.592 61.2333 199.508 61.15 199.342 61.15H198.042C197.875 61.15 197.725 61.1 197.592 61C197.492 60.8667 197.442 60.7167 197.442 60.55V55.25C197.442 55.0833 197.492 54.95 197.592 54.85C197.725 54.7167 197.875 54.65 198.042 54.65H207.292C207.458 54.65 207.592 54.7167 207.692 54.85C207.825 54.95 207.892 55.0833 207.892 55.25V64.55C207.892 67.55 206.925 69.95 204.992 71.75C203.092 73.5167 200.558 74.4 197.392 74.4ZM55.4484 112.4C52.2818 112.4 49.7484 111.467 47.8484 109.6C45.9484 107.733 44.9984 105.25 44.9984 102.15V86.8C44.9984 83.6667 45.9484 81.1833 47.8484 79.35C49.7484 77.5167 52.2818 76.6 55.4484 76.6C58.6151 76.6 61.1484 77.5167 63.0484 79.35C64.9818 81.1833 65.9484 83.6667 65.9484 86.8V87.25C65.9484 87.4167 65.8818 87.5667 65.7484 87.7C65.6484 87.8 65.5151 87.85 65.3484 87.85L58.2484 88.15C57.8484 88.15 57.6484 87.95 57.6484 87.55V86.2C57.6484 85.4333 57.4484 84.8333 57.0484 84.4C56.6484 83.9333 56.1151 83.7 55.4484 83.7C54.8151 83.7 54.2984 83.9333 53.8984 84.4C53.4984 84.8333 53.2984 85.4333 53.2984 86.2V102.85C53.2984 103.583 53.4984 104.183 53.8984 104.65C54.2984 105.083 54.8151 105.3 55.4484 105.3C56.1151 105.3 56.6484 105.083 57.0484 104.65C57.4484 104.183 57.6484 103.583 57.6484 102.85V101.4C57.6484 101.233 57.6984 101.1 57.7984 101C57.9318 100.867 58.0818 100.8 58.2484 100.8L65.3484 101.1C65.5151 101.1 65.6484 101.167 65.7484 101.3C65.8818 101.4 65.9484 101.533 65.9484 101.7V102.15C65.9484 105.25 64.9818 107.733 63.0484 109.6C61.1484 111.467 58.6151 112.4 55.4484 112.4ZM79.0848 112.4C75.8514 112.4 73.2681 111.467 71.3348 109.6C69.4348 107.733 68.4848 105.217 68.4848 102.05V86.95C68.4848 83.8167 69.4348 81.3167 71.3348 79.45C73.2681 77.55 75.8514 76.6 79.0848 76.6C82.2848 76.6 84.8514 77.55 86.7848 79.45C88.7514 81.3167 89.7348 83.8167 89.7348 86.95V102.05C89.7348 105.217 88.7514 107.733 86.7848 109.6C84.8514 111.467 82.2848 112.4 79.0848 112.4ZM79.0848 105.3C79.8181 105.3 80.3848 105.05 80.7848 104.55C81.2181 104.017 81.4348 103.3 81.4348 102.4V86.6C81.4348 85.7 81.2181 85 80.7848 84.5C80.3848 83.9667 79.8181 83.7 79.0848 83.7C78.3514 83.7 77.7848 83.9667 77.3848 84.5C76.9848 85 76.7848 85.7 76.7848 86.6V102.4C76.7848 103.3 76.9848 104.017 77.3848 104.55C77.7848 105.05 78.3514 105.3 79.0848 105.3ZM107.211 77.6C107.211 77.4333 107.261 77.3 107.361 77.2C107.494 77.0667 107.644 77 107.811 77H114.811C114.977 77 115.111 77.0667 115.211 77.2C115.344 77.3 115.411 77.4333 115.411 77.6V111.4C115.411 111.567 115.344 111.717 115.211 111.85C115.111 111.95 114.977 112 114.811 112H106.861C106.494 112 106.261 111.833 106.161 111.5L101.211 94.1C101.177 94 101.111 93.95 101.011 93.95C100.944 93.9167 100.911 93.9667 100.911 94.1L101.011 111.4C101.011 111.567 100.944 111.717 100.811 111.85C100.711 111.95 100.577 112 100.411 112H93.4105C93.2439 112 93.0939 111.95 92.9605 111.85C92.8605 111.717 92.8105 111.567 92.8105 111.4V77.6C92.8105 77.4333 92.8605 77.3 92.9605 77.2C93.0939 77.0667 93.2439 77 93.4105 77H101.261C101.627 77 101.861 77.1667 101.961 77.5L106.961 95C106.994 95.1 107.044 95.15 107.111 95.15C107.211 95.15 107.261 95.0833 107.261 94.95L107.211 77.6ZM129.543 112C129.377 112 129.227 111.95 129.093 111.85C128.993 111.717 128.943 111.567 128.943 111.4V77.6C128.943 77.4333 128.993 77.3 129.093 77.2C129.227 77.0667 129.377 77 129.543 77H136.643C136.81 77 136.943 77.0667 137.043 77.2C137.177 77.3 137.243 77.4333 137.243 77.6V111.4C137.243 111.567 137.177 111.717 137.043 111.85C136.943 111.95 136.81 112 136.643 112H129.543ZM155.861 112C155.461 112 155.244 111.817 155.211 111.45L154.561 107.1C154.561 106.933 154.461 106.85 154.261 106.85H148.861C148.661 106.85 148.561 106.933 148.561 107.1L147.961 111.45C147.928 111.817 147.711 112 147.311 112H140.211C139.778 112 139.611 111.783 139.711 111.35L146.961 77.55C147.028 77.1833 147.244 77 147.611 77H155.761C156.128 77 156.344 77.1833 156.411 77.55L163.611 111.35L163.661 111.55C163.661 111.85 163.478 112 163.111 112H155.861ZM149.661 100.2C149.661 100.367 149.728 100.45 149.861 100.45H153.211C153.344 100.45 153.411 100.367 153.411 100.2L151.611 88.8C151.578 88.6667 151.528 88.6 151.461 88.6C151.394 88.6 151.344 88.6667 151.311 88.8L149.661 100.2Z" fill="white"/>
</svg>
